<?xml version="1.0" standalone="no"?>
<!DOCTYPE svg PUBLIC "-//W3C//DTD SVG 20010904//EN"
 "http://www.w3.org/TR/2001/REC-SVG-20010904/DTD/svg10.dtd">
<svg version="1.0" xmlns="http://www.w3.org/2000/svg"
 width="225.000000pt" height="225.000000pt" viewBox="0 0 225.000000 225.000000"
 preserveAspectRatio="xMidYMid meet">

<g transform="translate(0.000000,225.000000) scale(0.100000,-0.100000)"
fill="#000000" stroke="none">
<path d="M948 2204 c-430 -66 -773 -377 -890 -807 -20 -71 -23 -107 -23 -267
0 -163 3 -195 23 -270 53 -191 136 -341 269 -481 143 -150 315 -251 522 -307
85 -23 115 -26 266 -26 153 0 180 3 270 27 407 109 712 430 795 836 24 121 27
303 5 418 -110 580 -657 968 -1237 877z m247 -89 c51 -50 11 -135 -64 -135
-10 0 -30 9 -45 21 -33 26 -37 88 -6 119 29 29 84 27 115 -5z m-167 3 c-3 -7
-14 -14 -26 -16 -18 -3 -20 -8 -14 -40 10 -63 8 -87 -8 -87 -11 0 -18 17 -24
58 -9 54 -11 57 -38 57 -41 0 -31 23 13 31 62 11 101 10 97 -3z m408 -41 c18
-16 25 -30 21 -40 -9 -25 -26 -21 -37 8 -12 31 -54 34 -70 6 -27 -52 10 -97
55 -67 32 21 45 1 17 -27 -17 -17 -26 -19 -53 -11 -43 12 -74 54 -65 88 16 64
82 86 132 43z m-576 -2 c19 -23 3 -35 -31 -22 -26 10 -32 9 -43 -6 -15 -20
-10 -61 10 -78 19 -16 53 -1 60 27 8 31 34 32 34 0 0 -30 -43 -66 -77 -66 -65
0 -98 99 -47 139 31 24 76 27 94 6z m731 -58 c48 -32 51 -76 9 -118 -25 -25
-36 -30 -58 -24 -82 20 -98 112 -27 153 28 16 38 15 76 -11z m-881 -47 c34
-67 36 -80 15 -80 -14 0 -75 106 -75 130 0 5 7 10 15 10 8 0 28 -27 45 -60z
m-71 -26 c21 -27 27 -70 13 -89 -10 -15 -63 -55 -72 -55 -7 0 -60 68 -83 107
-10 16 60 63 95 63 17 0 34 -10 47 -26z m1076 -5 c4 -5 -10 -31 -30 -57 l-36
-47 32 -26 c22 -18 28 -28 20 -33 -16 -10 -91 41 -91 61 0 14 79 113 90 113 5
0 12 -5 15 -11z m-380 -59 c277 -86 480 -301 546 -577 28 -115 23 -291 -11
-398 -69 -220 -222 -397 -420 -489 -499 -230 -1068 102 -1115 651 -33 381 238
742 620 827 99 22 286 15 380 -14z m-875 -13 c0 -8 -11 -24 -25 -37 -17 -16
-22 -27 -15 -34 7 -7 19 -1 39 18 38 37 54 15 17 -23 -22 -23 -24 -30 -13 -39
11 -9 20 -5 42 18 16 17 32 30 37 30 19 0 5 -29 -32 -65 l-40 -39 -52 52 -52
52 39 40 c41 42 55 49 55 27z m1376 -29 c5 -7 -11 -28 -40 -53 l-47 -40 25
-24 c25 -24 35 -51 18 -51 -4 0 -26 18 -47 41 l-40 40 52 50 c53 51 67 57 79
37z m-1446 -128 c76 -52 73 -70 -14 -70 -66 -1 -66 0 -1 -44 16 -11 17 -17 8
-27 -10 -9 -18 -8 -40 6 -111 70 -116 95 -20 95 l62 0 -38 25 c-37 26 -43 36
-30 48 10 10 9 10 73 -33z m1563 -24 c15 -24 27 -48 27 -55 0 -22 -19 -11 -40
25 -16 25 -26 32 -33 25 -8 -8 -6 -20 7 -42 12 -21 15 -34 8 -41 -6 -6 -16 0
-28 21 -18 30 -38 40 -48 23 -3 -5 4 -21 15 -38 20 -31 25 -54 9 -54 -12 0
-72 88 -68 100 3 9 107 79 118 80 3 0 17 -20 33 -44z m-1713 -111 c0 -9 -7
-29 -15 -45 -13 -25 -13 -29 0 -34 10 -3 21 6 31 27 21 41 21 40 33 32 7 -4 6
-16 -4 -36 -16 -29 -13 -49 6 -49 5 0 17 16 26 35 19 40 49 50 37 13 -3 -13
-15 -40 -26 -61 l-18 -37 -38 16 c-20 9 -49 20 -64 26 -33 12 -34 21 -8 82 21
45 40 61 40 31z m1786 -30 c31 -31 31 -97 1 -103 -16 -3 -18 1 -12 27 12 56
-41 84 -80 41 -15 -17 -16 -24 -7 -45 15 -33 41 -33 34 0 -6 35 13 31 29 -6
11 -28 10 -33 -6 -45 -27 -20 -41 -17 -64 12 -29 37 -34 61 -21 94 22 52 86
65 126 25z m-1821 -136 c4 -5 19 -7 34 -4 40 8 55 -14 48 -71 -7 -64 -14 -69
-89 -52 l-63 14 2 38 c4 62 47 110 68 75z m1890 -56 c3 -21 9 -48 12 -60 4
-16 1 -23 -10 -23 -10 0 -18 14 -22 40 -9 54 -38 56 -33 3 4 -49 -14 -55 -26
-8 -11 48 -31 39 -31 -15 0 -65 -21 -61 -35 6 -7 31 -8 60 -3 64 9 9 85 27
119 29 18 1 23 -6 29 -36z m-18 -209 c12 -19 11 -24 -6 -45 -16 -19 -23 -22
-37 -13 -34 20 -40 41 -19 64 22 25 42 23 62 -6z m-1859 4 c34 -34 -6 -90 -48
-68 -35 19 -20 80 20 80 9 0 21 -5 28 -12z m61 -252 c17 -53 8 -81 -26 -81
-11 -1 -28 -9 -38 -18 -9 -10 -24 -17 -33 -15 -23 5 -52 49 -58 90 l-6 36 63
20 c35 11 68 19 74 18 5 -2 16 -24 24 -50z m1708 17 c-3 -16 -8 -35 -12 -44
-4 -10 0 -19 9 -22 11 -5 19 4 27 34 7 22 17 38 23 36 12 -4 12 -18 1 -58 -5
-19 -2 -28 10 -32 10 -4 18 0 21 11 16 49 27 72 35 72 5 0 9 -8 9 -18 0 -26
-30 -112 -39 -112 -10 0 -118 37 -130 45 -8 4 10 82 24 105 13 21 27 9 22 -17z
m-1650 -158 c26 -46 29 -65 10 -65 -7 0 -21 16 -30 35 -11 23 -21 33 -31 29
-13 -5 -13 -11 4 -44 13 -26 16 -41 9 -45 -12 -8 -12 -9 -33 33 -9 17 -21 32
-27 32 -19 0 -21 -29 -3 -59 14 -23 15 -34 7 -42 -9 -9 -18 2 -37 39 -14 28
-26 56 -26 61 0 13 101 69 120 67 8 0 25 -19 37 -41z m1628 20 c0 -5 -13 -16
-28 -23 -20 -10 -27 -20 -27 -42 0 -55 76 -69 94 -18 11 32 -1 51 -15 25 -6
-9 -14 -17 -19 -17 -15 0 -11 32 6 55 14 18 17 19 42 4 21 -12 26 -22 24 -45
-7 -66 -66 -108 -118 -83 -56 27 -63 90 -16 142 16 18 57 20 57 2z m-1578
-111 c5 -14 -6 -63 -25 -112 -3 -10 7 -6 30 11 19 15 40 27 46 27 28 0 8 -31
-44 -70 -47 -35 -58 -40 -69 -29 -11 12 -10 24 5 71 l18 57 -33 -24 c-34 -27
-50 -31 -60 -16 -5 9 101 100 118 101 4 0 10 -7 14 -16z m1473 -14 c0 -6 -10
-24 -21 -39 -33 -44 -13 -63 22 -22 37 44 59 31 25 -14 -22 -29 -24 -34 -10
-46 12 -10 17 -9 29 7 39 55 44 59 55 48 7 -7 0 -24 -25 -57 -20 -26 -41 -47
-46 -47 -18 0 -108 74 -109 89 0 7 14 31 31 52 30 38 49 49 49 29z m-1338
-138 c26 -25 38 -43 33 -51 -5 -9 -16 -4 -40 19 -26 25 -34 28 -43 17 -9 -11
-6 -19 13 -37 14 -13 25 -27 25 -32 0 -15 -24 -8 -47 14 -18 17 -26 19 -35 10
-9 -9 -6 -18 15 -40 26 -27 35 -52 20 -52 -5 0 -27 19 -51 41 -47 46 -48 42
17 112 19 20 39 37 43 37 5 0 27 -17 50 -38z m1225 -54 l43 -42 23 22 c13 12
29 22 35 22 24 0 11 -28 -29 -59 -39 -32 -41 -33 -61 -14 -38 34 -79 93 -73
103 10 16 17 13 62 -32z m-1112 -39 c42 -37 45 -66 9 -108 -32 -39 -66 -40
-117 -5 -38 26 -38 26 -21 52 10 15 27 42 38 59 26 41 46 41 91 2z m1004 -49
l34 -49 27 19 c31 22 50 26 50 10 0 -10 -77 -70 -90 -70 -11 0 -80 108 -80
125 0 29 25 14 59 -35z m-899 -15 c0 -23 -59 -135 -70 -135 -23 0 -20 31 9 89
29 57 61 81 61 46z m839 -9 c32 -34 31 -83 -3 -113 -58 -50 -136 -14 -136 63
0 66 93 100 139 50z m-715 -37 c27 -21 36 -59 13 -59 -8 0 -19 11 -25 25 -15
32 -47 32 -68 0 -31 -47 3 -91 50 -65 30 16 45 7 30 -18 -16 -25 -75 -27 -104
-4 -51 41 -15 142 50 142 15 0 39 -9 54 -21z m550 -21 c15 -24 0 -34 -28 -19
-37 20 -61 11 -64 -25 -3 -35 21 -67 47 -62 9 2 22 16 29 31 15 30 30 35 38
12 9 -23 -22 -63 -55 -70 -43 -9 -69 2 -86 35 -20 39 -19 62 6 94 18 23 28 27
62 24 24 -2 44 -10 51 -20z m-401 -4 c15 -3 27 -12 27 -21 0 -11 -7 -14 -25
-11 -22 5 -25 1 -31 -31 -10 -61 -20 -86 -35 -86 -14 0 -15 6 -8 85 4 40 2 45
-18 48 -23 3 -29 13 -16 26 7 7 33 4 106 -10z m164 -26 c33 -31 32 -90 -3
-117 -56 -44 -134 -11 -134 57 0 73 84 110 137 60z"/>
<path d="M1107 2104 c-13 -13 -7 -71 8 -84 34 -28 83 29 58 69 -11 17 -54 27
-66 15z"/>
<path d="M1515 1976 c-21 -31 -6 -66 29 -66 31 0 48 22 44 57 -4 39 -50 45
-73 9z"/>
<path d="M550 1926 c-10 -13 -8 -22 15 -52 l28 -36 21 21 c19 20 20 23 6 49
-18 31 -51 40 -70 18z"/>
<path d="M637 1552 c-119 -2 -157 -6 -154 -15 2 -6 20 -15 40 -18 70 -11 67 7
66 -378 -1 -190 -4 -357 -8 -371 -5 -18 -17 -28 -44 -34 -21 -5 -36 -14 -34
-20 2 -7 79 -12 225 -14 214 -2 222 -2 275 22 30 13 73 40 95 60 36 33 46 50
67 111 6 18 8 17 22 -10 41 -80 131 -145 233 -169 117 -28 279 -13 305 28 14
23 37 154 29 168 -11 18 -24 6 -35 -34 -21 -82 -71 -113 -166 -105 -155 12
-254 113 -282 287 -26 159 2 304 71 366 43 40 84 54 156 54 131 0 204 -46 218
-135 12 -80 29 -47 32 62 l3 100 -102 18 c-181 31 -301 9 -393 -75 -78 -72
-119 -166 -124 -287 l-4 -93 -35 30 c-18 17 -56 42 -84 56 l-50 25 25 20 c39
31 76 101 83 156 7 67 -16 116 -71 148 -77 44 -132 51 -359 47z m212 -77 c63
-32 98 -150 66 -219 -22 -46 -60 -66 -125 -66 l-50 0 0 150 0 150 40 0 c23 0
54 -7 69 -15z m29 -364 c48 -25 77 -56 101 -111 36 -83 32 -148 -13 -197 -32
-35 -38 -37 -102 -41 -59 -3 -73 -1 -96 18 l-28 21 0 165 0 164 50 0 c30 0 66
-8 88 -19z"/>
<path d="M1374 1145 c11 -8 24 -15 30 -15 5 0 1 7 -10 15 -10 8 -23 14 -29 14
-5 0 -1 -6 9 -14z"/>
<path d="M1654 1114 c-24 -25 -57 -45 -80 -52 -21 -5 -30 -10 -19 -11 24 -1
111 39 116 54 2 6 8 9 12 7 4 -1 10 4 13 13 13 32 -3 28 -42 -11z"/>
<path d="M1350 1098 c0 -10 68 -41 79 -36 4 2 -12 12 -36 24 -24 12 -43 17
-43 12z"/>
<path d="M1658 1059 c-59 -61 -147 -74 -248 -39 -38 13 -49 14 -35 4 49 -36
178 -45 231 -16 42 23 96 70 92 80 -2 4 -20 -9 -40 -29z"/>
<path d="M1661 1017 c-38 -45 -102 -70 -172 -65 -32 2 -56 1 -53 -4 3 -4 21
-8 40 -8 19 0 34 -4 34 -10 0 -5 8 -10 18 -10 15 0 15 2 2 11 -12 9 -11 10 8
6 12 -3 22 -1 22 5 0 6 11 7 26 4 15 -4 23 -3 20 3 -5 7 14 20 34 23 7 1 52
69 48 72 -1 2 -14 -10 -27 -27z"/>
<path d="M1151 724 c0 -11 3 -14 6 -6 3 7 2 16 -1 19 -3 4 -6 -2 -5 -13z"/>
<path d="M1201 724 c0 -11 3 -14 6 -6 3 7 2 16 -1 19 -3 4 -6 -2 -5 -13z"/>
<path d="M171 1358 c-5 -15 -4 -26 2 -30 17 -10 27 0 27 28 0 30 -18 31 -29 2z"/>
<path d="M226 1348 c-9 -35 -8 -38 14 -38 16 0 20 7 20 30 0 36 -25 41 -34 8z"/>
<path d="M233 903 c-18 -6 -16 -42 2 -50 22 -8 28 2 19 30 -5 13 -15 22 -21
20z"/>
<path d="M168 882 c-14 -3 -15 -8 -6 -33 11 -32 25 -38 35 -13 8 22 -9 51 -29
46z"/>
<path d="M561 373 c-22 -35 -23 -37 -5 -50 24 -17 30 -17 54 7 23 23 26 50 8
68 -19 19 -32 14 -57 -25z"/>
<path d="M1482 324 c-13 -23 4 -71 27 -79 43 -13 69 21 48 63 -15 33 -60 42
-75 16z"/>
<path d="M1091 236 c-31 -37 9 -103 47 -80 36 23 23 94 -18 94 -10 0 -23 -6
-29 -14z"/>
</g>
</svg>
